<?xml version="1.0" encoding="UTF-8" standalone="no"?>
<svg
   xmlns:dc="http://purl.org/dc/elements/1.1/"
   xmlns:cc="http://creativecommons.org/ns#"
   xmlns:rdf="http://www.w3.org/1999/02/22-rdf-syntax-ns#"
   xmlns:svg="http://www.w3.org/2000/svg"
   xmlns="http://www.w3.org/2000/svg"
   xmlns:sodipodi="http://sodipodi.sourceforge.net/DTD/sodipodi-0.dtd"
   xmlns:inkscape="http://www.inkscape.org/namespaces/inkscape"
   version="1.1"
   id="Calque_1"
   x="0px"
   y="0px"
   viewBox="0 0 340.70001 129.24998"
   xml:space="preserve"
   sodipodi:docname="logo-kelbongoo_blanc.svg"
   width="340.70001"
   height="129.24998"
   inkscape:version="1.0.1 (c497b03c, 2020-09-10)"><metadata
   id="metadata49"><rdf:RDF><cc:Work
       rdf:about=""><dc:format>image/svg+xml</dc:format><dc:type
         rdf:resource="http://purl.org/dc/dcmitype/StillImage" /><dc:title></dc:title></cc:Work></rdf:RDF></metadata><defs
   id="defs47" /><sodipodi:namedview
   pagecolor="#ffffff"
   bordercolor="#666666"
   borderopacity="1"
   objecttolerance="10"
   gridtolerance="10"
   guidetolerance="10"
   inkscape:pageopacity="0"
   inkscape:pageshadow="2"
   inkscape:window-width="1440"
   inkscape:window-height="792"
   id="namedview45"
   showgrid="false"
   lock-margins="true"
   fit-margin-top="0"
   fit-margin-left="0"
   fit-margin-right="0"
   fit-margin-bottom="0"
   inkscape:zoom="1.53"
   inkscape:cx="160.03529"
   inkscape:cy="108.01349"
   inkscape:window-x="0"
   inkscape:window-y="25"
   inkscape:window-maximized="1"
   inkscape:current-layer="Calque_1" />
<style
   type="text/css"
   id="style10">
	.st0{fill:#FEF4D4;}
	.st1{fill:#E94F24;}
</style>
<g
   id="g18"
   transform="translate(-28.2,-139.69893)">
	<path
   class="st0"
   d="m 40.5,241.2 c 0,0.6 -1.9,0.9 -5.8,0.9 l -3.4,-0.2 c -2.1,-0.2 -3.1,-0.5 -3.1,-0.9 v -41.3 c 0,-0.7 2.1,-1 6.2,-1 4.1,0 6.2,0.3 6.2,1 v 15.8 l 7.5,-15.8 c 0.3,-0.6 1.9,-0.9 4.9,-0.9 5.5,0 8.3,0.5 8.6,1.4 0,0.1 0,0.2 -0.1,0.2 l -10.7,19.3 12.4,17.2 c 0,0.1 -0.4,0.4 -1.2,1 -1.9,1.6 -4.1,2.9 -6.6,3.9 -0.8,0.3 -1.6,0.4 -2.3,0.4 l -1.5,-0.1 c -1.3,-0.3 -2.3,-1.2 -3.1,-2.5 l -7,-13.4 h -1 z"
   id="path12" />
	<path
   class="st0"
   d="m 86.1,216.1 c 0.8,0 1.2,1.4 1.2,4.3 0,0.9 -0.1,1.9 -0.3,3 -0.2,1.2 -0.5,1.8 -1,1.8 h -7.8 v 6.2 h 11.3 c 0.7,0 1.2,0.9 1.4,2.7 0.1,0.8 0.2,1.6 0.2,2.5 0,0.9 -0.1,2 -0.4,3.4 -0.2,1.4 -0.7,2.1 -1.2,2.1 H 68.4 c -1.6,0 -2.3,-0.6 -2.3,-1.9 v -39.6 c 0,-1.1 0.5,-1.6 1.4,-1.6 h 22 c 0.9,0 1.3,1.8 1.3,5.5 0,3.6 -0.4,5.5 -1.3,5.5 H 78.1 v 6.2 h 8 z"
   id="path14" />
	<path
   class="st0"
   d="m 95.5,238.4 v -38.3 c 0,-0.9 2.1,-1.3 6.2,-1.3 4.2,0 6.3,0.4 6.3,1.3 v 30.2 h 9.5 c 0.7,0 1.3,1 1.5,2.9 0.1,0.9 0.2,1.9 0.2,2.9 0,1 -0.1,2 -0.2,3 -0.3,2 -0.9,3 -1.6,3 h -19 c -0.9,0 -1.6,-0.4 -2.2,-1.1 -0.5,-0.8 -0.7,-1.6 -0.7,-2.6 z"
   id="path16" />
</g>
<g
   id="g26"
   transform="translate(-28.2,-139.69893)">
	<path
   class="st0"
   d="m 273.2,229.3 0.1,-8.4 c 0,-0.6 0.6,-1 1.8,-1.1 1.2,-0.2 2.2,-0.3 3,-0.3 l 2.4,0.2 c 1.6,0.2 2.3,0.7 2.3,1.3 l -0.2,19.3 c -0.8,0.6 -2.5,1.1 -5,1.7 -2.5,0.6 -5.3,0.8 -8.5,0.8 -6,0 -10.8,-1.9 -14.4,-5.8 -3.7,-3.9 -5.5,-9.5 -5.5,-17 0,-6.4 1.8,-11.5 5.4,-15.5 3.6,-4 8.5,-6 14.8,-6 2.9,0 5.5,0.3 7.8,0.8 2.3,0.6 3.9,1.3 4.8,2.2 0,0.3 0.1,0.9 0.1,1.8 0,0.9 -0.3,2.2 -0.9,3.9 -0.6,1.7 -1.3,2.9 -2.1,3.7 -0.8,0.8 -1.3,1.2 -1.7,1.2 -0.3,0 -0.7,-0.2 -1.1,-0.5 -0.4,-0.3 -1.2,-0.6 -2.3,-1 -1.1,-0.3 -2.3,-0.5 -3.3,-0.5 -2.5,0 -4.6,0.8 -6.2,2.5 -1.6,1.6 -2.4,4.2 -2.4,7.6 0,3.4 0.8,6.1 2.4,7.9 1.6,1.8 3.5,2.7 5.6,2.7 2.1,0 3.1,-0.5 3.1,-1.5 z"
   id="path20" />
	<path
   class="st0"
   d="m 306.7,242.8 c -5.8,0 -10.5,-1.9 -14.1,-5.7 -3.6,-3.8 -5.4,-9.3 -5.4,-16.5 0,-7.2 1.8,-12.7 5.5,-16.5 3.7,-3.7 8.4,-5.6 14.2,-5.6 5.8,0 10.5,1.8 14.1,5.5 3.6,3.7 5.4,9.2 5.4,16.7 0,7.5 -1.8,13 -5.5,16.6 -3.7,3.6 -8.4,5.5 -14.2,5.5 z m 0,-32.5 c -2,0 -3.6,0.9 -5,2.7 -1.3,1.8 -2,4.3 -2,7.6 0,3.3 0.6,5.8 1.9,7.5 1.3,1.7 2.9,2.6 5,2.6 2.1,0 3.8,-0.9 5,-2.6 1.3,-1.8 1.9,-4.3 1.9,-7.6 0,-3.3 -0.7,-5.8 -2,-7.6 -1.2,-1.7 -2.8,-2.6 -4.8,-2.6 z"
   id="path22" />
	<path
   class="st0"
   d="m 349.2,242.8 c -5.8,0 -10.5,-1.9 -14.1,-5.7 -3.6,-3.8 -5.4,-9.3 -5.4,-16.5 0,-7.2 1.8,-12.7 5.5,-16.5 3.7,-3.7 8.4,-5.6 14.2,-5.6 5.8,0 10.5,1.8 14.1,5.5 3.6,3.7 5.4,9.2 5.4,16.7 0,7.5 -1.8,13 -5.5,16.6 -3.7,3.6 -8.4,5.5 -14.2,5.5 z m 0.1,-32.5 c -2,0 -3.6,0.9 -5,2.7 -1.3,1.8 -2,4.3 -2,7.6 0,3.3 0.6,5.8 1.9,7.5 1.3,1.7 2.9,2.6 5,2.6 2.1,0 3.8,-0.9 5,-2.6 1.3,-1.8 1.9,-4.3 1.9,-7.6 0,-3.3 -0.7,-5.8 -2,-7.6 -1.2,-1.7 -2.9,-2.6 -4.8,-2.6 z"
   id="path24" />
</g>
<g
   id="g30"
   transform="translate(-28.2,-139.69893)">
	<path
   class="st1"
   d="m 210.9,166 c 0,0 -0.1,-0.1 -0.2,-0.1 0.1,0.1 0.1,0.1 0.2,0.1 z"
   id="path28" />
</g>
<path
   class="st1"
   d="m 213.2,55.801074 c -1.9,-3.9 -7.5,-14.7 -20.4,-21.1 -15.3,-7.7 -30,-3.6 -33.4,-2.6 -1.6,1.3 -5.9,4.6 -12.4,5.2 -6.7,0.6 -11.7,-2.1 -13.5,-3.1 0,-0.1 0,-0.1 -0.1,-0.2 0,-0.1 0,-0.1 -0.1,-0.2 -3.4,-0.7 -10.8,-1.9 -19.2,1.3 -11.9,4.5 -17.1,14.4 -18.7,17.4 -3.7,7.2 -4,13.5 -4.2,19.9 -0.1,2.3 -0.6,18.9 5.5,30.699996 15.3,29.7 75.1,34.1 103.4,13.2 5.3,-3.9 8.4,-7.9 10,-10.1 9.8,-13.999996 11.2,-34.199996 3.1,-50.399996 z"
   id="path32" />
<path
   class="st0"
   d="m 133.5,35.401074 c -0.3,-1.4 -0.8,-2.9 -1.4,-4.5 -2.4,-6.1 -6.3,-10.2 -9.1,-12.5 -4.7,-4.4 -6.8,-7.2 -6.1,-8.4999999 0.4,-0.8 2,-1 4.7,-0.5 2.9,0.9999999 6.4,2.5999999 10,4.9999999 7.1,4.7 11.4,10.5 13.9,14.4 -1.4,-3.6 -2.9,-9 -2.6,-15.5 0.3,-6.4999999 2.5,-13.39999986 3.8,-13.29999986 0.9,0.1 0.9,3.59999996 1.7,8.49999996 1.2,7.4999999 3.5,13.5999999 5.6,18.0999999 2.4,-2.2 6.1,-5.2 10.9,-8.4 0.8,-0.6 11.1,-7.4 11.9,-6.2 1,1.5 -9.2,12 -11.3,14.1 -3.1,3.2 -5.8,5.7 -7.7,7.3 2.4,-0.4 5.7,-0.7 9.6,-0.3 9.1,1.1 16.6,5.9 16.3,6.9 -0.2,0.7 -3.9,-0.9 -12.3,-1.6 -10,-0.8 -14.9,0.5 -16.2,0.9 -2.5,0.7 -5.1,1.5 -8,3.6 -5.9,4.3 -7.7,10.6 -8.8,10.1 -0.3,-0.1 -0.5,-0.6 0,-7.1 0.1,-1.9 0.2,-3.4 0.3,-4.5 -3.1,-0.4 -7.5,-0.5 -12.4,1 -8.8,2.7 -13.4,8.7 -14.4,7.7 -1,-1 1.8,-7.5 6.9,-11.3 5.9,-4.3 12.4,-3.7 14.7,-3.4 z"
   id="path34" />
<g
   id="g42"
   transform="translate(-28.2,-139.69893)">
	<path
   class="st0"
   d="m 156,210.2 c 0,4.3 -1.8,7.5 -5.5,9.7 2,0.7 3.7,2 5.1,3.8 1.4,1.8 2,4.4 2,7.7 0,3.3 -1.2,5.9 -3.7,7.9 -2.4,1.9 -5.9,2.9 -10.5,2.9 h -14.5 c -0.7,0 -1.3,-0.2 -1.7,-0.7 -0.5,-0.5 -0.7,-1.1 -0.7,-1.9 v -39.4 c 0,-0.5 0.1,-0.7 0.2,-0.9 0.1,-0.1 0.4,-0.2 0.9,-0.2 h 14 c 9.6,-0.1 14.4,3.6 14.4,11.1 z M 138.3,209 v 8.1 h 0.3 c 3.9,0 5.9,-1.3 5.9,-3.9 0,-1.4 -0.4,-2.5 -1.1,-3.1 -0.8,-0.7 -2,-1 -3.8,-1 h -1.3 z m 0,15.3 v 8 h 1.1 c 1.8,0 3.1,-0.3 3.9,-1 0.8,-0.7 1.2,-1.7 1.2,-3.1 0,-1.4 -0.4,-2.4 -1.1,-3 -0.8,-0.6 -2,-0.9 -3.8,-0.9 z"
   id="path36" />
	<path
   class="st0"
   d="m 180.4,242.8 c -5.8,0 -10.5,-1.9 -14.1,-5.7 -3.6,-3.8 -5.4,-9.3 -5.4,-16.5 0,-7.2 1.8,-12.7 5.5,-16.5 3.7,-3.7 8.4,-5.6 14.2,-5.6 5.8,0 10.5,1.8 14.1,5.5 3.6,3.7 5.4,9.2 5.4,16.7 0,7.5 -1.8,13 -5.5,16.6 -3.7,3.6 -8.5,5.5 -14.2,5.5 z m 0,-32.5 c -2,0 -3.6,0.9 -5,2.7 -1.3,1.8 -2,4.3 -2,7.6 0,3.3 0.6,5.8 1.9,7.5 1.3,1.7 2.9,2.6 5,2.6 2.1,0 3.8,-0.9 5,-2.6 1.3,-1.8 1.9,-4.3 1.9,-7.6 0,-3.3 -0.7,-5.8 -2,-7.6 -1.2,-1.7 -2.8,-2.6 -4.8,-2.6 z"
   id="path38" />
	<path
   class="st0"
   d="m 238.4,240.8 c 0,0.9 -1.9,1.3 -5.8,1.3 -3.9,0 -6,-0.3 -6.3,-0.9 L 216,221.9 v 19.2 c 0,0.7 -1.9,1.1 -5.7,1.1 -3.8,0 -5.7,-0.4 -5.7,-1.1 v -41.2 c 0,-0.6 1.6,-0.9 4.9,-0.9 1.3,0 2.8,0.1 4.5,0.3 1.7,0.2 2.7,0.6 3.1,1.3 l 9.9,19 v -19.3 c 0,-0.8 1.9,-1.2 5.7,-1.2 3.8,0 5.7,0.4 5.7,1.2 z"
   id="path40" />
</g>
</svg>
